<?xml version="1.0" standalone="no"?>
<!DOCTYPE svg PUBLIC "-//W3C//DTD SVG 20010904//EN"
 "http://www.w3.org/TR/2001/REC-SVG-20010904/DTD/svg10.dtd">
<svg version="1.0" xmlns="http://www.w3.org/2000/svg"
 width="1280.000000pt" height="1105.000000pt" viewBox="0 0 1280.000000 1105.000000"
 preserveAspectRatio="xMidYMid meet">
<metadata>
Created by potrace 1.15, written by Peter Selinger 2001-2017
</metadata>
<g transform="translate(0.000000,1105.000000) scale(0.100000,-0.100000)"
fill="#000000" stroke="none">
<path d="M5580 11040 c-405 -50 -795 -219 -1140 -496 -117 -95 -299 -280 -397
-406 -348 -445 -502 -947 -472 -1535 29 -562 256 -1081 654 -1492 585 -604
1421 -842 2240 -636 906 227 1586 979 1732 1915 21 141 25 499 5 635 -112 781
-578 1421 -1287 1765 -251 123 -467 190 -739 231 -150 23 -479 33 -596 19z"/>
<path d="M3353 7855 c-180 -37 -319 -82 -449 -145 -227 -110 -370 -243 -580
-540 -510 -721 -905 -1374 -1258 -2080 -446 -895 -739 -1713 -910 -2545 -110
-538 -150 -924 -150 -1475 0 -385 4 -478 44 -863 11 -104 20 -192 20 -198 0
-5 707 -9 1875 -9 l1875 0 0 24 c0 14 -16 137 -34 273 -46 326 -73 578 -86
793 -12 186 -12 188 26 495 13 110 35 320 49 468 40 426 64 570 131 802 95
323 291 710 597 1178 60 92 112 167 116 167 3 0 21 -39 40 -88 124 -316 311
-647 481 -847 177 -208 400 -375 647 -484 88 -38 674 -230 868 -284 395 -110
773 -159 1490 -192 182 -8 427 -22 545 -31 238 -18 462 -14 546 9 69 19 150
64 180 100 69 82 107 218 119 424 18 303 -56 369 -455 403 -135 11 -945 117
-1265 165 -604 90 -1162 219 -1392 321 -221 97 -564 737 -886 1653 l-51 146
-1 225 c-1 250 -11 302 -76 405 -36 57 -45 65 -78 65 -37 0 -245 49 -330 77
-172 57 -434 212 -720 426 -392 292 -575 557 -773 1116 -13 36 -27 66 -33 67
-5 1 -60 -8 -122 -21z"/>
<path d="M11952 4903 c-55 -93 -177 -301 -272 -463 -95 -162 -349 -592 -565
-955 -466 -783 -667 -1125 -880 -1493 -114 -199 -167 -280 -193 -300 l-35 -27
-1889 -3 -1888 -2 0 -295 0 -295 2055 0 c2256 0 2090 -5 2151 61 17 19 197
322 399 674 203 352 661 1149 1020 1770 733 1271 727 1261 711 1274 -25 20
-109 57 -244 108 -79 29 -170 67 -203 83 -32 17 -60 30 -63 30 -3 0 -49 -75
-104 -167z"/>
<path d="M4984 869 c-18 -20 -19 -43 -22 -363 -2 -187 0 -378 3 -423 l7 -83
3914 0 3914 0 0 445 0 445 -3898 0 -3899 0 -19 -21z"/>
</g>
</svg>
